SuitBeethoven.glyphspackage
{
glyphname = period;
layers = (
{
layerId = m01;
shapes = (
{
closed = 1;
nodes = (
(170,152,ls),
(170,168,o),
(163,171,o),
(120,171,cs),
(60,171,ls),
(17,171,o),
(10,167,o),
(10,151,cs),
(10,16,ls),
(10,2,o),
(17,0,o),
(60,0,c),
(134,0,l),
(158,0,o),
(170,3,o),
(170,16,c),
(170,67,l)
);
}
);
width = 244;
}
);
unicode = 46;
}
{
glyphname = zero;
layers = (
{
hints = (
{
horizontal = 1;
place = (-17, 102);
place = (-17, 102);
type = Stem;
},
{
horizontal = 1;
place = (553, -20);
target = down;
type = TopGhost;
},
{
horizontal = 1;
place = (506, 47);
place = (506, 47);
type = Stem;
},
{
place = (74, 79);
place = (74, 79);
type = Stem;
},
{
place = (649, 84);
place = (649, 84);
type = Stem;
}
);
layerId = m01;
shapes = (
{
closed = 1;
nodes = (
(206,561,o),
(110,542,o),
(96,514,cs),
(85,493,o),
(74,396,o),
(74,200,cs),
(74,107,o),
(85,49,o),
(96,36,cs),
(110,19,o),
(232,-9,o),
(404,-9,cs),
(576,-9,o),
(689,19,o),
(703,36,cs),
(714,49,o),
(725,107,o),
(725,201,cs),
(725,396,o),
(714,493,o),
(703,514,cs),
(689,542,o),
(588,561,o),
(397,561,cs)
);
},
{
closed = 1;
nodes = (
(574,217,o),
(644,183,o),
(644,159,c),
(644,128,o),
(531,93,o),
(397,93,cs),
(263,93,o),
(148,128,o),
(148,159,c),
(148,183,o),
(220,217,o),
(397,217,cs)
);
}
);
width = 799;
}
);
unicode = 48;
}
{
glyphname = one;
layers = (
{
hints = (
{
horizontal = 1;
origin = (0,0);
target = down;
type = TopGhost;
},
{
horizontal = 1;
origin = (0,1);
target = (0,0);
type = Stem;
},
{
place = (248, 2000);
place = (248, 2000);
type = Stem;
},
{
place = (74, 2000);
place = (74, 2000);
type = Stem;
}
);
layerId = m01;
shapes = (
{
closed = 1;
nodes = (
(74,570,l),
(74,299,l),
(92,299,o),
(116,299,o),
(149,292,c),
(237,271,o),
(248,222,o),
(248,116,c),
(248,80,o),
(247,40,o),
(248,0,c),
(338,0,l),
(341,570,l)
);
}
);
width = 415;
}
);
unicode = 49;
}
{
glyphname = two;
layers = (
{
hints = (
{
horizontal = 1;
origin = (0,21);
target = (0,28);
type = Stem;
},
{
horizontal = 1;
origin = (0,3);
target = (0,43);
type = Stem;
},
{
origin = (0,18);
target = (0,31);
type = Stem;
},
{
origin = (0,9);
target = (0,37);
type = Stem;
}
);
layerId = m01;
shapes = (
{
closed = 1;
nodes = (
(74,280,l),
(85,280,o),
(92,281,o),
(103,281,c),
(282,281,o),
(413,280,o),
(495,274,c),
(529,272,o),
(555,270,o),
(555,259,c),
(555,242,o),
(531,238,o),
(498,230,c),
(434,216,o),
(397,209,o),
(331,203,c),
(59,173,o),
(76,130,o),
(74,1,c),
(162,-1,o),
(249,-4,o),
(331,-4,c),
(461,-4,o),
(574,-8,o),
(668,1,c),
(668,80,l),
(577,80,o),
(488,75,o),
(405,75,c),
(296,75,o),
(240,77,o),
(240,83,c),
(240,128,o),
(360,139,o),
(594,180,c),
(692,197,o),
(670,222,o),
(670,426,c),
(670,507,o),
(681,544,o),
(630,550,c),
(551,558,o),
(462,562,o),
(369,562,c),
(226,562,o),
(123,554,o),
(74,547,c)
);
}
);
width = 746;
}
);
unicode = 50;
}
{
glyphname = three;
layers = (
{
hints = (
{
horizontal = 1;
origin = (0,32);
target = (0,25);
type = Stem;
},
{
horizontal = 1;
origin = (0,16);
target = (0,15);
type = Stem;
},
{
horizontal = 1;
origin = (0,3);
target = (0,65);
type = Stem;
},
{
origin = (0,22);
target = (0,38);
type = Stem;
},
{
origin = (0,9);
target = (0,59);
type = Stem;
}
);
layerId = m01;
shapes = (
{
closed = 1;
nodes = (
(74,281,l),
(146,282,o),
(221,283,o),
(295,283,c),
(358,283,o),
(422,275,o),
(488,267,c),
(507,265,o),
(526,256,o),
(526,249,c),
(526,233,o),
(484,222,o),
(411,213,c),
(330,204,o),
(216,206,o),
(74,205,c),
(74,145,l),
(230,140,o),
(348,144,o),
(426,134,c),
(494,125,o),
(532,112,o),
(532,101,c),
(532,86,o),
(453,64,o),
(323,64,c),
(267,64,o),
(182,69,o),
(74,71,c),
(74,5,l),
(151,-4,o),
(225,-8,o),
(296,-8,c),
(445,-8,o),
(550,3,o),
(601,14,c),
(642,22,o),
(639,39,o),
(639,88,c),
(639,109,o),
(639,132,o),
(631,142,c),
(626,149,o),
(589,171,o),
(561,171,c),
(558,171,o),
(545,169,o),
(543,169,c),
(537,169,o),
(529,169,o),
(529,175,c),
(529,189,o),
(550,181,o),
(558,181,c),
(573,181,o),
(596,197,o),
(621,210,c),
(644,223,o),
(638,248,o),
(638,271,c),
(638,441,o),
(642,505,o),
(605,509,c),
(554,514,o),
(481,526,o),
(389,526,c),
(319,526,o),
(214,528,o),
(74,514,c)
);
}
);
width = 713;
}
);
unicode = 51;
}
{
glyphname = four;
layers = (
{
hints = (
{
horizontal = 1;
origin = (0,22);
target = (1,3);
type = Stem;
},
{
horizontal = 1;
origin = (0,5);
target = down;
type = TopGhost;
},
{
horizontal = 1;
origin = (0,15);
target = (1,3);
type = Stem;
},
{
horizontal = 1;
origin = (0,18);
target = (1,3);
type = Stem;
},
{
horizontal = 1;
origin = (0,8);
target = (0,5);
type = Stem;
},
{
origin = (0,15);
target = (1,6);
type = Stem;
},
{
origin = (0,22);
target = (0,23);
type = Stem;
}
);
layerId = m01;
shapes = (
{
closed = 1;
nodes = (
(649,116,l),
(730,116,l),
(730,184,l),
(649,184,l),
(649,570,l),
(325,570,l),
(288,426,o),
(231,330,o),
(74,254,c),
(74,238,l),
(74,197,o),
(75,163,o),
(75,137,c),
(75,128,o),
(74,123,o),
(74,116,c),
(111,113,o),
(221,105,o),
(404,105,c),
(457,105,o),
(507,107,o),
(551,108,c),
(551,0,l),
(649,0,l)
);
},
{
closed = 1;
nodes = (
(551,184,l),
(541,184,o),
(534,184,o),
(524,184,c),
(279,184,o),
(156,190,o),
(156,211,c),
(156,228,o),
(199,229,o),
(273,243,c),
(335,255,o),
(429,249,o),
(551,254,c)
);
}
);
width = 804;
}
);
unicode = 52;
}
{
glyphname = five;
layers = (
{
hints = (
{
horizontal = 1;
origin = (0,19);
target = (0,12);
type = Stem;
},
{
horizontal = 1;
origin = (0,3);
target = (0,31);
type = Stem;
},
{
horizontal = 1;
origin = (0,38);
target = (0,45);
type = Stem;
},
{
horizontal = 1;
origin = (0,42);
target = down;
type = TopGhost;
},
{
origin = (0,16);
target = (0,34);
type = Stem;
},
{
origin = (0,6);
target = (0,25);
type = Stem;
}
);
layerId = m01;
shapes = (
{
closed = 1;
nodes = (
(74,146,l),
(120,147,o),
(167,148,o),
(209,148,c),
(437,148,o),
(556,139,o),
(556,111,c),
(556,88,o),
(436,69,o),
(386,69,cs),
(363,69,o),
(299,69,o),
(199,74,cs),
(156,76,o),
(113,78,o),
(74,83,c),
(74,6,l),
(134,-1,o),
(219,-7,o),
(324,-7,c),
(489,-7,o),
(601,7,o),
(634,14,c),
(678,22,o),
(675,48,o),
(675,115,c),
(675,224,o),
(670,206,o),
(541,219,c),
(498,223,o),
(414,225,o),
(293,225,c),
(248,225,o),
(201,224,o),
(156,223,c),
(156,297,l),
(156,297,o),
(183,300,o),
(313,300,cs),
(506,300,o),
(675,292,o),
(675,292,c),
(675,554,l),
(559,560,o),
(445,563,o),
(335,563,c),
(249,563,o),
(160,561,o),
(74,557,c)
);
}
);
width = 749;
}
);
unicode = 53;
}
{
glyphname = six;
layers = (
{
hints = (
{
horizontal = 1;
origin = (0,12);
target = (1,5);
type = Stem;
},
{
horizontal = 1;
origin = (1,11);
target = (0,24);
type = Stem;
},
{
horizontal = 1;
origin = (0,36);
target = (0,3);
type = Stem;
},
{
horizontal = 1;
origin = (0,3);
target = down;
type = TopGhost;
},
{
origin = (0,6);
target = (0,30);
type = Stem;
},
{
origin = (1,2);
target = (0,18);
type = Stem;
},
{
origin = (0,6);
target = (1,8);
type = Stem;
}
);
layerId = m01;
shapes = (
{
closed = 1;
nodes = (
(690,541,l),
(625,552,o),
(512,562,o),
(365,562,c),
(70,562,o),
(74,539,o),
(74,198,c),
(74,73,o),
(75,33,o),
(120,12,c),
(143,1,o),
(253,-8,o),
(443,-8,c),
(523,-8,o),
(569,-8,o),
(645,12,c),
(692,24,o),
(690,44,o),
(690,109,c),
(690,174,o),
(688,185,o),
(655,196,c),
(628,205,o),
(523,224,o),
(359,224,c),
(252,224,o),
(185,216,o),
(151,186,c),
(150,192,o),
(150,196,o),
(150,202,c),
(150,253,o),
(168,284,o),
(201,289,c),
(259,296,o),
(315,300,o),
(340,300,c),
(395,300,o),
(517,291,o),
(690,288,c)
);
},
{
closed = 1;
nodes = (
(510,150,o),
(584,126,o),
(584,105,c),
(584,79,o),
(513,66,o),
(377,66,c),
(248,66,o),
(168,90,o),
(168,112,c),
(168,136,o),
(240,150,o),
(379,150,c)
);
}
);
width = 764;
}
);
unicode = 54;
}
{
glyphname = seven;
layers = (
{
hints = (
{
horizontal = 1;
origin = (0,31);
target = down;
type = TopGhost;
},
{
horizontal = 1;
origin = (0,3);
target = (0,28);
type = Stem;
},
{
origin = (0,15);
target = (0,22);
type = Stem;
},
{
origin = (0,9);
target = (0,22);
type = Stem;
}
);
layerId = m01;
shapes = (
{
closed = 1;
nodes = (
(74,283,l),
(151,285,o),
(235,285,o),
(320,285,c),
(379,285,o),
(412,284,o),
(472,282,c),
(482,282,o),
(500,289,o),
(500,278,c),
(500,272,o),
(431,249,o),
(301,202,c),
(157,150,o),
(82,99,o),
(74,0,c),
(246,0,l),
(260,138,o),
(390,176,o),
(629,250,c),
(652,257,o),
(648,290,o),
(648,314,c),
(648,456,o),
(650,533,o),
(641,546,c),
(625,570,o),
(531,568,o),
(354,568,c),
(261,568,o),
(167,566,o),
(74,562,c)
);
}
);
width = 722;
}
);
unicode = 55;
}
{
glyphname = eight;
layers = (
{
hints = (
{
horizontal = 1;
origin = (0,26);
target = (2,5);
type = Stem;
},
{
horizontal = 1;
origin = (2,11);
target = (1,5);
type = Stem;
},
{
horizontal = 1;
origin = (0,53);
target = down;
type = TopGhost;
},
{
horizontal = 1;
origin = (1,14);
target = (0,53);
type = Stem;
},
{
origin = (0,20);
target = (2,8);
type = Stem;
},
{
origin = (2,2);
target = (0,32);
type = Stem;
},
{
origin = (0,8);
target = (1,11);
type = Stem;
},
{
origin = (1,2);
target = (0,44);
type = Stem;
}
);
layerId = m01;
shapes = (
{
closed = 1;
nodes = (
(217,561,o),
(119,545,o),
(105,538,c),
(83,527,o),
(74,499,o),
(74,459,c),
(74,429,o),
(78,414,o),
(79,385,c),
(82,241,o),
(46,204,o),
(182,184,c),
(192,183,o),
(206,188,o),
(206,178,c),
(206,169,o),
(191,174,o),
(181,172,c),
(69,152,o),
(77,143,o),
(77,90,c),
(77,52,o),
(73,35,o),
(100,21,c),
(107,16,o),
(209,-9,o),
(381,-9,c),
(551,-9,o),
(655,18,o),
(658,20,c),
(684,32,o),
(682,48,o),
(682,93,c),
(682,139,o),
(686,158,o),
(575,174,c),
(562,176,o),
(541,167,o),
(541,181,c),
(541,195,o),
(563,186,o),
(578,187,c),
(709,200,o),
(683,223,o),
(684,376,c),
(684,408,o),
(687,425,o),
(687,457,c),
(687,511,o),
(679,530,o),
(658,539,c),
(651,541,o),
(552,561,o),
(387,561,c)
);
},
{
closed = 1;
nodes = (
(495,299,o),
(573,276,o),
(573,260,c),
(573,237,o),
(494,216,o),
(382,216,c),
(341,216,o),
(318,222,o),
(276,224,c),
(210,228,o),
(172,245,o),
(172,260,c),
(172,280,o),
(251,299,o),
(379,299,c)
);
},
{
closed = 1;
nodes = (
(507,139,o),
(571,112,o),
(571,98,c),
(571,82,o),
(502,61,o),
(380,61,c),
(248,61,o),
(175,83,o),
(175,100,c),
(175,119,o),
(243,139,o),
(379,139,c)
);
}
);
width = 761;
}
);
unicode = 56;
}
{
glyphname = nine;
layers = (
{
hints = (
{
horizontal = 1;
origin = (0,3);
target = (0,36);
type = Stem;
},
{
horizontal = 1;
origin = (0,27);
target = (1,5);
type = Stem;
},
{
horizontal = 1;
origin = (1,11);
target = (0,15);
type = Stem;
},
{
origin = (0,21);
target = (1,8);
type = Stem;
},
{
origin = (0,33);
target = (0,9);
type = Stem;
},
{
origin = (1,2);
target = (0,9);
type = Stem;
}
);
layerId = m01;
shapes = (
{
closed = 1;
nodes = (
(81,1,l),
(232,-14,o),
(336,-11,o),
(396,-11,c),
(560,-11,o),
(650,6,o),
(664,68,c),
(680,145,o),
(679,226,o),
(679,310,c),
(679,474,o),
(679,529,o),
(641,534,c),
(537,549,o),
(435,556,o),
(333,556,c),
(268,556,o),
(194,553,o),
(112,541,c),
(70,534,o),
(74,464,o),
(74,317,c),
(74,200,o),
(72,151,o),
(118,148,c),
(263,139,o),
(365,133,o),
(418,133,c),
(516,133,o),
(577,147,o),
(594,176,c),
(595,177,o),
(596,175,o),
(596,174,c),
(596,76,o),
(498,72,o),
(303,72,c),
(209,72,o),
(134,78,o),
(81,82,c)
);
},
{
closed = 1;
nodes = (
(499,289,o),
(577,270,o),
(577,251,c),
(577,226,o),
(504,209,o),
(354,209,c),
(226,209,o),
(136,232,o),
(136,255,c),
(136,274,o),
(214,289,o),
(355,289,c)
);
}
);
width = 753;
}
);
unicode = 57;
}
{
glyphname = "koKai-thai";
layers = (
{
anchors = (
{
name = bottomright;
pos = (674,0);
},
{
name = topright;
pos = (674,552);
}
);
hints = (
{
name = _segment.curve.top;
origin = (0,0);
type = Segment;
}
);
layerId = m01;
shapes = (
{
closed = 1;
nodes = (
(74,316,ls),
(74,316,o),
(74,260,o),
(74,260,c),
(74,242,o),
(78,209,o),
(83,190,cs),
(89,168,o),
(132,171,o),
(171,155,c),
(139,144,o),
(87,151,o),
(77,126,cs),
(75,121,o),
(74,76,o),
(74,76,c),
(74,0,l),
(163,0,l),
(163,89,ls),
(163,101,o),
(128,119,o),
(373,119,c),
(373,195,l),
(190,195,o),
(163,214,o),
(163,227,cs),
(163,257,o),
(268,270,o),
(380,270,cs),
(493,270,o),
(584,257,o),
(584,227,cs),
(584,0,l),
(674,0,l),
(674,316,l)
);
}
);
width = 748;
}
);
unicode = 3585;
}
{
glyphname = "khoKhai-thai";
kernLeft = kho;
layers = (
{
anchors = (
{
name = bottomright;
pos = (539,0);
},
{
name = topright;
pos = (539,552);
}
);
hints = (
{
name = _segment.curve.bottom;
origin = (0,0);
type = Segment;
}
);
layerId = m01;
shapes = (
{
closed = 1;
nodes = (
(64,461,l),
(64,264,l),
(108,267,o),
(161,269,o),
(198,269,cs),
(272,269,o),
(333,261,o),
(333,252,c),
(409,252,l),
(409,461,l)
);
},
{
closed = 1;
nodes = (
(203,0,l),
(510,0,l),
(510,123,l),
(447,125,l),
(447,108,o),
(413,78,o),
(313,78,c),
(313,116,o),
(409,175,o),
(409,252,c),
(334,263,l),
(334,257,o),
(332,250,o),
(328,244,c),
(328,243,o),
(327,241,o),
(325,240,c),
(296,196,o),
(204,125,o),
(204,52,c),
(203,52,l)
);
},
{
closed = 1;
nodes = (
(539,0,l),
(539,552,l),
(447,552,l),
(447,0,l)
);
}
);
width = 613;
}
);
unicode = 3586;
}
{
glyphname = "khoKhwai-thai";
layers = (
{
anchors = (
{
name = bottomright;
pos = (731,0);
},
{
name = topright;
pos = (731,552);
}
);
guides = (
{
pos = (280,240);
}
);
hints = (
{
name = _segment.curve.top;
origin = (0,0);
type = Segment;
}
);
layerId = m01;
shapes = (
{
closed = 1;
nodes = (
(74,316,l),
(74,0,l),
(161,0,l),
(161,46,ls),
(161,70,o),
(163,78,o),
(178,84,cs),
(199,91,o),
(270,100,o),
(392,100,c),
(556,100,l),
(556,164,l),
(460,164,l),
(260,164,o),
(154,188,o),
(154,214,cs),
(154,228,o),
(236,243,o),
(396,248,c),
(531,248,o),
(646,233,o),
(646,214,cs),
(646,0,l),
(731,0,l),
(731,316,l)
);
}
);
width = 805;
}
);
unicode = 3588;
}
{
glyphname = "khoRakhang-thai";
kernLeft = kho;
layers = (
{
anchors = (
{
name = bottomright;
pos = (539,0);
},
{
name = topright;
pos = (539,552);
}
);
hints = (
{
name = _segment.top_invert;
origin = (0,0);
type = Segment;
}
);
layerId = m01;
shapes = (
{
closed = 1;
nodes = (
(64,536,l,{
GSSegment = {
name = _segment.top_invert;
};
}),
(64,264,l),
(106,267,o),
(161,269,o),
(198,269,cs),
(272,269,o),
(333,261,o),
(333,252,c),
(409,252,l),
(409,536,l)
);
},
{
closed = 1;
nodes = (
(539,0,l),
(539,552,l),
(447,552,l),
(447,145,ls),
(447,128,o),
(401,98,o),
(301,106,c),
(301,136,o),
(409,175,o),
(409,252,c),
(333,252,l),
(333,246,o),
(331,239,o),
(327,233,c),
(327,232,o),
(326,230,o),
(324,229,c),
(295,185,o),
(214,122,o),
(204,52,c),
(203,52,l),
(203,0,l),
(301,0,l),
(301,42,l),
(317,39,ls),
(443,15,o),
(447,0,o),
(447,0,c)
);
}
);
width = 613;
}
);
unicode = 3590;
}
{
glyphname = "ngoNgu-thai";
layers = (
{
anchors = (
{
name = bottomright;
pos = (644,-4);
},
{
name = topright;
pos = (644,552);
}
);
hints = (
{
name = _segment.curve.inner.shallow;
origin = (2,2);
scale = (0.89667,1);
type = Segment;
},
{
name = _segment.curve.top;
origin = (2,5);
scale = (0.89667,1);
type = Segment;
}
);
layerId = m01;
shapes = (
{
closed = 1;
nodes = (
(644,-4,l),
(644,84,l),
(74,183,l),
(74,111,l)
);
},
{
closed = 1;
nodes = (
(554,57,l),
(644,-4,l),
(644,239,l),
(554,239,l)
);
},
{
closed = 1;
nodes = (
(74,222,l),
(163,222,l),
(554,222,l,{
GSSegment = {
name = _segment.curve.inner.shallow;
};
}),
(644,222,l),
(644,316,l),
(74,316,l,{
GSSegment = {
name = _segment.curve.top;
};
})
);
}
);
width = 718;
}
);
unicode = 3591;
}
{
glyphname = "choChan-thai";
layers = (
{
anchors = (
{
name = bottomright;
pos = (664,-1);
},
{
name = topright;
pos = (664,552);
}
);
hints = (
{
name = _segment.curve.inner.shallow;
origin = (0,2);
type = Segment;
},
{
name = _segment.curve.top;
origin = (0,5);
type = Segment;
}
);
layerId = m01;
shapes = (
{
closed = 1;
nodes = (
(64,262,l),
(153,262,l),
(574,262,l,{
GSSegment = {
name = _segment.curve.inner.shallow;
};
}),
(664,262,l),
(664,316,l),
(64,316,l,{
GSSegment = {
name = _segment.curve.top;
};
})
);
},
{
closed = 1;
nodes = (
(327,160,o),
(449,130,o),
(490,0,c),
(664,-1,l),
(664,219,l),
(574,219,l),
(565,108,o),
(552,96,o),
(536,96,cs),
(519,96,o),
(504,108,o),
(495,219,c),
(234,221,l),
(234,160,l)
);
},
{
closed = 1;
nodes = (
(574,213,l),
(664,213,l),
(664,277,l),
(574,277,l)
);
}
);
width = 738;
}
);
unicode = 3592;
}
{
glyphname = "choChing-thai";
layers = (
{
anchors = (
{
name = bottomright;
pos = (674,0);
},
{
name = topright;
pos = (674,552);
}
);
hints = (
{
name = _segment.curve.inner.shallow;
origin = (3,3);
type = Segment;
},
{
name = _segment.curve.top;
origin = (3,0);
type = Segment;
}
);
layerId = m01;
shapes = (
{
closed = 1;
nodes = (
(74,0,l),
(194,0,l),
(230,27,l),
(230,166,l),
(74,166,l)
);
},
{
closed = 1;
nodes = (
(583,202,ls),
(583,186,o),
(576,171,o),
(552,165,cs),
(168,74,l),
(194,0,l),
(644,110,l),
(674,110,l),
(674,270,l),
(585,270,l)
);
},
{
closed = 1;
nodes = (
(542,163,o),
(540,130,o),
(540,102,c),
(540,36,o),
(542,0,o),
(548,0,c),
(674,0,l),
(674,166,l),
(548,163,l)
);
},
{
closed = 1;
nodes = (
(74,316,l),
(74,222,l),
(163,222,l),
(584,222,l,{
GSSegment = {
name = _segment.curve.inner.shallow;
};
}),
(674,222,l),
(674,316,l)
);
}
);
width = 748;
}
);
unicode = 3593;
}
{
glyphname = "soSo-thai";
kernLeft = kho;
layers = (
{
anchors = (
{
name = bottomright;
pos = (539,0);
},
{
name = topright;
pos = (634,551);
}
);
hints = (
{
name = _segment.top_invert;
origin = (0,0);
type = Segment;
}
);
layerId = m01;
shapes = (
{
closed = 1;
nodes = (
(64,536,l,{
GSSegment = {
name = _segment.top_invert;
};
}),
(64,264,l),
(106,267,o),
(161,269,o),
(198,269,cs),
(272,269,o),
(333,261,o),
(333,252,c),
(409,252,l),
(409,536,l)
);
},
{
closed = 1;
nodes = (
(203,0,l),
(510,0,l),
(510,123,l),
(447,125,l),
(447,108,o),
(413,78,o),
(313,78,c),
(313,116,o),
(409,175,o),
(409,252,c),
(334,263,l),
(334,257,o),
(332,250,o),
(328,244,c),
(328,243,o),
(327,241,o),
(325,240,c),
(296,196,o),
(204,125,o),
(204,52,c),
(203,52,l)
);
},
{
closed = 1;
nodes = (
(539,0,l),
(539,216,l),
(513,232,o),
(497,244,o),
(497,265,cs),
(497,285,o),
(539,326,o),
(634,326,c),
(634,551,l),
(447,551,l),
(447,0,l)
);
}
);
width = 698;
}
);
unicode = 3595;
}
{
glyphname = "choChoe-thai";
layers = (
{
anchors = (
{
name = bottomright;
pos = (1008,0);
},
{
name = topright;
pos = (1008,552);
}
);
guides = (
{
angle = 90;
pos = (613,-27);
},
{
pos = (82,316);
}
);
layerId = m01;
shapes = (
{
closed = 1;
nodes = (
(928,215,l),
(927,139,o),
(939,125,o),
(783,125,cs),
(686,125,o),
(650,146,o),
(650,214,c),
(564,214,l),
(564,0,l),
(652,0,l),
(651,71,l),
(657,57,o),
(665,42,o),
(682,29,c),
(715,3,o),
(755,-8,o),
(820,-8,cs),
(918,-8,o),
(960,7,o),
(986,22,c),
(1015,38,o),
(1018,57,o),
(1018,91,c),
(1018,552,l),
(928,552,l)
);
},
{
ref = "_cho-yo-no";
}
);
width = 1092;
}
);
unicode = 3596;
}
{
glyphname = "yoYing-thai";
layers = (
{
anchors = (
{
name = bottomright;
pos = (1008,-118);
},
{
name = topright;
pos = (1008,552);
}
);
layerId = m01;
shapes = (
{
ref = "yoYing-thai.less";
},
{
closed = 1;
nodes = (
(1008,-118,l),
(1008,-46,l),
(564,-46,l),
(564,-118,l)
);
}
);
width = 1082;
}
);
unicode = 3597;
}
{
glyphname = "doChada-thai";
layers = (
{
anchors = (
{
name = bottomright;
pos = (723,-200);
},
{
name = topright;
pos = (723,552);
}
);
hints = (
{
name = _segment.curve.top;
origin = (0,0);
type = Segment;
}
);
layerId = m01;
shapes = (
{
closed = 1;
nodes = (
(123,316,l),
(123,92,l),
(37,92,l),
(37,0,l),
(123,0,l),
(212,0,l),
(212,206,ls),
(212,220,o),
(282,235,o),
(419,240,c),
(535,240,o),
(633,225,o),
(633,206,cs),
(633,111,l),
(633,-104,o),
(605,-137,o),
(559,-128,c),
(441,-85,l),
(304,-135,l),
(336,-201,l),
(441,-163,l),
(546,-201,l),
(546,-200,l),
(633,-200,l),
(723,-200,l),
(723,316,l)
);
}
);
width = 797;
}
);
unicode = 3598;
}
{
glyphname = "toPatak-thai";
layers = (
{
anchors = (
{
name = bottomright;
pos = (723,-200);
},
{
name = topright;
pos = (729,552);
}
);
hints = (
{
name = _segment.curve.top;
origin = (0,0);
type = Segment;
}
);
layerId = m01;
shapes = (
{
closed = 1;
nodes = (
(123,316,l),
(123,92,l),
(37,92,l),
(37,0,l),
(123,0,l),
(212,0,l),
(212,206,ls),
(212,220,o),
(282,235,o),
(419,240,c),
(535,240,o),
(633,225,o),
(633,206,cs),
(633,111,l),
(633,-104,o),
(605,-137,o),
(559,-128,c),
(441,-85,l),
(334,-124,l),
(224,-84,l),
(87,-134,l),
(119,-200,l),
(248,-153,o),
(138,-193,o),
(224,-162,c),
(336,-201,l),
(336,-201,l),
(465,-154,o),
(355,-194,o),
(441,-163,c),
(546,-201,l),
(546,-200,l),
(633,-200,l),
(723,-200,l),
(723,316,l)
);
}
);
width = 797;
}
);
unicode = 3599;
}
{
glyphname = "thoThan-thai";
layers = (
{
anchors = (
{
name = bottomright;
pos = (674,-200);
},
{
name = topright;
pos = (674,552);
}
);
hints = (
{
name = _segment.curve.top;
origin = (2,14);
type = Segment;
}
);
layerId = m01;
shapes = (
{
closed = 1;
nodes = (
(674,69,l),
(505,69,l),
(505,-73,ls),
(505,-114,o),
(497,-119,o),
(431,-119,cs),
(369,-119,o),
(322,-91,o),
(322,-73,c),
(274,-73,l),
(274,-96,o),
(229,-119,o),
(158,-119,cs),
(74,-119,l),
(74,-198,l),
(161,-198,ls),
(217,-198,o),
(277,-185,o),
(298,-171,c),
(319,-185,o),
(448,-198,o),
(505,-198,cs),
(607,-198,o),
(638,-183,o),
(654,-168,cs),
(672,-152,o),
(674,-133,o),
(674,-99,cs)
);
},
{
closed = 1;
nodes = (
(125,64,l),
(163,0,l),
(674,198,l),
(636,282,l)
);
},
{
closed = 1;
nodes = (
(74,218,l),
(74,218,o),
(163,218,o),
(163,218,c),
(163,241,o),
(247,265,o),
(380,264,c),
(467,264,o),
(554,216,o),
(554,198,c),
(553,198,o),
(674,198,o),
(674,198,c),
(674,316,l),
(74,316,l)
);
},
{
closed = 1;
nodes = (
(74,0,l),
(163,0,l),
(163,172,l),
(74,172,l)
);
}
);
width = 748;
}
);
unicode = 3600;
}
{
glyphname = "thoNangmontho-thai";
kernLeft = kho;
layers = (
{
anchors = (
{
name = bottomright;
pos = (646,0);
},
{
name = topright;
pos = (646,552);
}
);
layerId = m01;
shapes = (
{
closed = 1;
nodes = (
(459,560,o),
(205,274,o),
(205,187,c),
(203,0,l),
(294,0,l),
(293,110,ls),
(292,190,o),
(389,259,o),
(556,259,c),
(646,344,l),
(646,461,ls),
(646,495,o),
(644,514,o),
(625,530,cs),
(607,545,o),
(538,560,o),
(474,560,c)
);
},
{
closed = 1;
nodes = (
(646,0,l),
(646,350,l),
(556,300,l),
(554,0,l)
);
},
{
closed = 1;
nodes = (
(64,290,l),
(64,305,o),
(131,327,o),
(239,327,c),
(342,327,o),
(400,286,o),
(400,290,c),
(400,537,l),
(400,563,o),
(395,569,o),
(382,572,c),
(372,575,o),
(322,536,o),
(237,536,c),
(147,536,o),
(94,575,o),
(84,572,c),
(69,569,o),
(64,563,o),
(64,537,c)
);
}
);
width = 720;
}
);
unicode = 3601;
}
{
glyphname = "thoPhuthao-thai";
layers = (
{
anchors = (
{
name = bottomright;
pos = (835,0);
},
{
name = topright;
pos = (950,552);
}
);
hints = (
{
name = _segment.top_invert;
origin = (3,2);
type = Segment;
}
);
layerId = m01;
shapes = (
{
closed = 1;
nodes = (
(955,262,l),
(950,552,l),
(805,552,l),
(805,262,l)
);
},
{
closed = 1;
nodes = (
(835,0,l),
(835,552,l),
(762,552,l),
(759,467,o),
(765,332,o),
(737,153,cs),
(733,128,o),
(725,111,o),
(719,111,cs),
(699,111,o),
(676,244,o),
(676,473,cs),
(676,499,o),
(674,495,o),
(674,520,c),
(673,552,l),
(662,0,l)
);
},
{
closed = 1;
nodes = (
(580,0,l),
(674,0,l),
(674,402,l),
(583,402,l)
);
},
{
closed = 1;
nodes = (
(674,223,l),
(674,535,l),
(74,535,l,{
GSSegment = {
name = _segment.top_invert;
};
}),
(74,0,l),
(429,0,l),
(429,77,l),
(429,77,o),
(330,75,o),
(298,75,cs),
(176,75,o),
(150,77,o),
(150,102,cs),
(150,213,ls),
(150,236,o),
(237,260,o),
(374,259,cs),
(495,259,o),
(581,231,o),
(581,213,c)
);
}
);
width = 1019;
}
);
unicode = 3602;
}
{
glyphname = "noNen-thai";
layers = (
{
anchors = (
{
name = bottomright;
pos = (1008,0);
},
{
name = topright;
pos = (1008,552);
}
);
layerId = m01;
shapes = (
{
closed = 1;
nodes = (
(564,145,l),
(564,91,ls),
(564,57,o),
(566,38,o),
(595,22,cs),
(620,7,o),
(679,-8,o),
(752,-8,cs),
(843,-8,o),
(875,3,o),
(906,29,cs),
(922,42,o),
(926,57,o),
(932,71,c),
(932,0,l),
(1022,0,l),
(1022,552,l),
(932,552,l),
(932,214,ls),
(932,146,o),
(905,125,o),
(798,125,cs),
(679,125,o),
(655,137,o),
(650,198,c)
);
},
{
ref = "_cho-yo-no";
}
);
width = 1082;
}
);
unicode = 3603;
}
{
glyphname = "doDek-thai";
layers = (
{
anchors = (
{
name = bottomright;
pos = (674,0);
},
{
name = topright;
pos = (674,552);
}
);
hints = (
{
name = _segment.curve.top;
origin = (0,0);
type = Segment;
}
);
layerId = m01;
shapes = (
{
closed = 1;
nodes = (
(74,316,l),
(74,0,l),
(429,0,l),
(429,78,l),
(429,78,o),
(330,76,o),
(298,76,cs),
(176,76,o),
(150,78,o),
(150,103,cs),
(150,213,ls),
(150,243,o),
(258,256,o),
(374,256,cs),
(490,256,o),
(584,243,o),
(584,213,cs),
(584,0,l),
(674,0,l),
(674,316,l)
);
}
);
width = 748;
}
);
unicode = 3604;
}
{
glyphname = "toTao-thai";
layers = (
{
anchors = (
{
name = bottomright;
pos = (674,0);
},
{
name = topright;
pos = (674,552);
}
);
hints = (
{
name = _segment.top_invert;
origin = (0,9);
type = Segment;
}
);
layerId = m01;
shapes = (
{
closed = 1;
nodes = (
(163,243,o),
(268,256,o),
(380,256,cs),
(493,256,o),
(584,243,o),
(584,213,cs),
(584,0,l),
(674,0,l),
(674,535,l),
(74,535,l),
(74,0,l),
(429,0,l),
(429,75,l),
(429,75,o),
(335,73,o),
(304,73,cs),
(188,73,o),
(163,75,o),
(163,100,cs),
(163,213,ls)
);
}
);
width = 748;
}
);
unicode = 3605;
}
{
glyphname = "thoThung-thai";
layers = (
{
anchors = (
{
name = bottomright;
pos = (674,0);
},
{
name = topright;
pos = (674,552);
}
);
layerId = m01;
shapes = (
{
closed = 1;
nodes = (
(109,0,l),
(149,0,o),
(183,0,o),
(223,0,c),
(223,65,l),
(109,65,l)
);
},
{
ref = "koKai-thai";
}
);
width = 748;
}
);
unicode = 3606;
}
{
glyphname = "thoThahan-thai";
layers = (
{
anchors = (
{
name = bottomright;
pos = (674,0);
},
{
name = topright;
pos = (674,552);
}
);
layerId = m01;
shapes = (
{
closed = 1;
nodes = (
(586,0,l),
(674,0,l),
(674,464,l),
(674,498,o),
(671,517,o),
(637,533,c),
(607,548,o),
(530,563,o),
(417,563,cs),
(308,563,o),
(234,552,o),
(196,526,c),
(177,513,o),
(171,498,o),
(164,484,c),
(164,552,l),
(74,552,l),
(74,0,l),
(163,0,l),
(163,213,ls),
(163,243,o),
(268,256,o),
(380,256,cs),
(493,256,o),
(584,243,o),
(584,213,cs)
);
}
);
width = 748;
}
);
unicode = 3607;
}
{
glyphname = "thoThong-thai";
layers = (
{
anchors = (
{
name = bottomright;
pos = (675,0);
},
{
name = topright;
pos = (720,572);
}
);
guides = (
{
pos = (163,508);
},
{
angle = 90;
pos = (164,299);
},
{
angle = 90;
pos = (75,299);
},
{
angle = 90;
pos = (30,349);
}
);
layerId = m01;
shapes = (
{
closed = 1;
nodes = (
(75,141,l),
(164,141,l),
(164,300,l),
(75,300,l)
);
},
{
closed = 1;
nodes = (
(164,478,o),
(155,494,o),
(243,494,cs),
(540,494,o),
(316,441,o),
(555,441,cs),
(720,441,o),
(720,435,o),
(720,460,cs),
(720,499,o),
(720,494,o),
(720,521,c),
(598,521,l),
(316,521,o),
(570,569,o),
(278,569,cs),
(191,569,o),
(121,564,o),
(102,547,cs),
(73,521,o),
(74,466,o),
(74,373,cs),
(74,349,l),
(163,349,l),
(520,349,o),
(603,317,o),
(603,301,cs),
(603,278,o),
(585,252,o),
(164,252,cs),
(75,252,l),
(75,0,l),
(94,0,ls),
(594,0,o),
(631,21,o),
(653,34,cs),
(668,43,o),
(675,64,o),
(675,97,cs),
(675,359,ls),
(675,385,o),
(674,425,o),
(164,425,c)
);
},
{
closed = 1;
nodes = (
(631,499,l),
(720,499,l),
(720,572,l),
(631,572,l)
);
}
);
width = 794;
}
);
unicode = 3608;
}
{
glyphname = "noNu-thai";
layers = (
{
anchors = (
{
name = bottomright;
pos = (674,0);
},
{
name = topright;
pos = (674,552);
}
);
layerId = m01;
shapes = (
{
closed = 1;
nodes = (
(74,552,l),
(74,91,l),
(74,57,o),
(77,38,o),
(111,22,c),
(141,7,o),
(218,-8,o),
(331,-8,c),
(440,-8,o),
(514,3,o),
(552,29,c),
(571,42,o),
(577,57,o),
(584,71,c),
(584,0,l),
(674,0,l),
(674,552,l),
(584,552,l),
(584,373,l),
(584,305,o),
(533,284,o),
(387,284,c),
(208,284,o),
(164,298,o),
(163,374,c),
(163,552,l)
);
}
);
width = 748;
}
);
unicode = 3609;
}
{
glyphname = "poPla-thai";
layers = (
{
anchors = (
{
name = bottomright;
pos = (676,0);
},
{
name = topright;
pos = (520,552);
}
);
layerId = m01;
shapes = (
{
closed = 1;
nodes = (
(487,-8,o),
(607,7,o),
(637,22,cs),
(671,38,o),
(674,57,o),
(674,91,c),
(674,750,l),
(584,750,l),
(584,373,l),
(584,297,o),
(520,284,o),
(374,284,cs),
(228,284,o),
(164,298,o),
(163,374,c),
(163,552,l),
(74,552,l),
(74,91,l),
(74,57,o),
(77,38,o),
(111,22,c),
(141,7,o),
(261,-8,o),
(374,-8,cs)
);
}
);
width = 748;
}
);
unicode = 3611;
}
{
glyphname = "phoPhan-thai";
kernLeft = kho;
layers = (
{
anchors = (
{
name = bottomright;
pos = (675,0);
},
{
name = topright;
pos = (914,552);
}
);
layerId = m01;
shapes = (
{
closed = 1;
nodes = (
(64,552,l),
(64,249,l),
(146,244,o),
(217,240,o),
(270,145,c),
(298,93,o),
(303,45,o),
(309,0,c),
(429,0,l),
(433,41,o),
(433,96,o),
(488,207,c),
(527,140,o),
(549,73,o),
(553,0,c),
(675,0,l),
(680,46,o),
(681,96,o),
(712,150,c),
(758,232,o),
(824,247,o),
(914,249,c),
(914,552,l),
(662,552,l),
(662,461,l),
(662,236,o),
(632,115,o),
(609,115,c),
(599,115,o),
(593,129,o),
(588,147,c),
(544,292,o),
(558,432,o),
(553,552,c),
(429,552,l),
(425,467,o),
(433,332,o),
(395,153,c),
(390,128,o),
(379,111,o),
(371,111,c),
(345,111,o),
(314,244,o),
(314,473,c),
(314,499,o),
(314,527,o),
(315,552,c)
);
}
);
width = 988;
}
);
unicode = 3614;
}
{
glyphname = "phoSamphao-thai";
layers = (
{
anchors = (
{
name = bottomright;
pos = (694,0);
},
{
name = topright;
pos = (694,552);
}
);
layerId = m01;
shapes = (
{
closed = 1;
nodes = (
(37,0,l),
(77,0,o),
(111,0,o),
(151,0,c),
(151,65,l),
(37,65,l)
);
},
{
pos = (20,0);
ref = "koKai-thai";
}
);
width = 768;
}
);
unicode = 3616;
}
{
glyphname = "moMa-thai";
layers = (
{
anchors = (
{
name = bottomright;
pos = (674,0);
},
{
name = topright;
pos = (674,552);
}
);
layerId = m01;
shapes = (
{
closed = 1;
nodes = (
(584,374,l),
(583,298,o),
(540,284,o),
(361,284,cs),
(215,284,o),
(163,305,o),
(163,373,c),
(163,552,l),
(74,552,l),
(74,0,l),
(163,0,l),
(163,71,l),
(170,57,o),
(177,42,o),
(196,29,c),
(234,3,o),
(308,-8,o),
(417,-8,cs),
(530,-8,o),
(607,7,o),
(637,22,c),
(671,38,o),
(674,57,o),
(674,91,c),
(674,552,l),
(584,552,l)
);
}
);
width = 748;
}
);
unicode = 3617;
}
{
glyphname = "yoYak-thai";
layers = (
{
anchors = (
{
name = bottomright;
pos = (584,0);
},
{
name = topright;
pos = (584,552);
}
);
hints = (
{
name = _segment.curve.bottom;
origin = (0,30);
type = Segment;
}
);
layerId = m01;
shapes = (
{
closed = 1;
nodes = (
(496,358,l),
(496,315,o),
(491,297,o),
(475,282,cs),
(448,257,o),
(393,256,o),
(333,256,cs),
(180,256,o),
(163,284,o),
(163,311,cs),
(163,354,o),
(180,370,o),
(415,370,c),
(415,432,l),
(402,432,ls),
(309,432,o),
(163,443,o),
(163,461,cs),
(163,479,o),
(309,490,o),
(402,490,cs),
(415,490,l),
(415,552,ls),
(415,574,o),
(128,576,o),
(82,559,cs),
(77,557,o),
(74,552,o),
(74,506,cs),
(74,95,l),
(586,95,l),
(584,552,l),
(496,552,l)
);
}
);
width = 660;
}
);
unicode = 3618;
}
{
glyphname = "roRua-thai";
layers = (
{
anchors = (
{
name = bottomright;
pos = (741,0);
},
{
name = topright;
pos = (741,552);
}
);
layerId = m01;
shapes = (
{
closed = 1;
nodes = (
(76,183,o),
(66,146,o),
(127,144,cs),
(452,129,o),
(609,127,o),
(609,105,cs),
(609,88,o),
(569,78,o),
(492,75,c),
(489,-7,l),
(598,-6,o),
(675,-1,o),
(713,4,cs),
(744,9,o),
(745,41,o),
(745,110,cs),
(745,177,o),
(751,205,o),
(697,206,cs),
(413,211,o),
(248,220,o),
(201,230,cs),
(175,235,o),
(157,238,o),
(157,252,cs),
(157,272,o),
(244,280,o),
(416,280,cs),
(607,280,o),
(716,271,o),
(741,270,c),
(741,544,l),
(699,551,o),
(593,560,o),
(435,560,cs),
(354,560,o),
(268,556,o),
(177,550,cs),
(54,542,o),
(76,547,o),
(76,348,cs)
);
}
);
width = 819;
}
);
unicode = 3619;
}
{
glyphname = "ru-thai";
layers = (
{
anchors = (
{
name = bottomright;
pos = (534,0);
},
{
name = topright;
pos = (674,552);
}
);
layerId = m01;
shapes = (
{
closed = 1;
nodes = (
(584,-211,l),
(674,-211,l),
(674,47,l),
(584,47,l)
);
},
{
ref = "thoThung-thai";
}
);
width = 745;
}
);
unicode = 3620;
}
{
glyphname = "loLing-thai";
layers = (
{
anchors = (
{
name = bottomright;
pos = (674,0);
},
{
name = topright;
pos = (674,552);
}
);
hints = (
{
name = _segment.curve.inner.shallow;
origin = (2,3);
type = Segment;
},
{
name = _segment.curve.top;
origin = (2,0);
type = Segment;
}
);
layerId = m01;
shapes = (
{
closed = 1;
nodes = (
(163,92,l),
(165,106,o),
(238,109,o),
(376,90,c),
(492,70,o),
(587,39,o),
(584,0,c),
(637,48,l),
(639,82,o),
(638,101,o),
(607,119,c),
(580,136,o),
(469,159,o),
(363,167,c),
(256,174,o),
(143,167,o),
(114,154,c),
(81,141,o),
(76,122,o),
(74,88,c)
);
},
{
closed = 1;
nodes = (
(75,0,l),
(163,0,l),
(163,92,l),
(74,88,l)
);
},
{
closed = 1;
nodes = (
(74,316,l),
(74,212,l),
(163,212,l),
(584,204,l,{
GSSegment = {
name = _segment.curve.inner.shallow;
};
}),
(674,204,l),
(674,316,l)
);
},
{
closed = 1;
nodes = (
(584,0,l),
(674,0,l),
(674,268,l),
(584,268,l)
);
}
);
width = 748;
}
);
unicode = 3621;
}
{
glyphname = "woWaen-thai";
layers = (
{
anchors = (
{
name = bottomright;
pos = (663,0);
},
{
name = topright;
pos = (663,552);
}
);
hints = (
{
name = _segment.curve.top;
origin = (2,5);
type = Segment;
},
{
name = _segment.curve.inner.shallow;
origin = (2,2);
type = Segment;
}
);
layerId = m01;
shapes = (
{
closed = 1;
nodes = (
(574,0,l),
(663,0,l),
(663,279,l),
(574,279,l)
);
},
{
closed = 1;
nodes = (
(470,0,l),
(663,0,l),
(663,75,l),
(470,75,l)
);
},
{
closed = 1;
nodes = (
(64,217,l),
(153,217,l),
(574,217,l),
(664,217,l),
(664,316,l),
(64,316,l)
);
}
);
width = 738;
}
);
unicode = 3623;
}
{
glyphname = "soSala-thai";
kernRight = soSala;
layers = (
{
anchors = (
{
name = bottomright;
pos = (731,0);
},
{
name = topright;
pos = (806,552);
}
);
layerId = m01;
shapes = (
{
ref = "khoKhwai-thai";
},
{
closed = 1;
nodes = (
(431,478,l),
(806,478,l),
(806,560,l),
(431,560,l)
);
}
);
width = 816;
}
);
unicode = 3624;
}
{
glyphname = "soRusi-thai";
layers = (
{
anchors = (
{
name = bottomright;
pos = (674,0);
},
{
name = topright;
pos = (674,552);
}
);
layerId = m01;
shapes = (
{
closed = 1;
nodes = (
(163,149,l),
(163,552,l),
(74,552,l),
(74,149,l)
);
},
{
closed = 1;
nodes = (
(74,63,o),
(77,44,o),
(111,28,cs),
(141,13,o),
(261,-2,o),
(374,-2,cs),
(487,-2,o),
(607,13,o),
(637,28,cs),
(671,44,o),
(674,63,o),
(674,97,cs),
(674,296,l),
(674,296,o),
(584,296,o),
(584,296,c),
(584,278,o),
(498,250,o),
(380,250,c),
(247,249,o),
(163,273,o),
(163,296,c),
(163,296,o),
(74,296,o),
(74,296,c),
(74,97,ls)
);
},
{
closed = 1;
nodes = (
(674,372,l),
(674,378,o),
(674,391,o),
(734,391,cs),
(767,391,l),
(767,465,l),
(734,465,l),
(674,465,o),
(674,478,o),
(674,484,c),
(674,552,l),
(584,552,l),
(584,484,l),
(584,465,o),
(531,465,o),
(470,465,c),
(436,465,l),
(436,391,l),
(470,391,ls),
(531,391,o),
(584,391,o),
(584,372,c),
(584,149,l),
(674,149,l)
);
}
);
width = 777;
}
);
unicode = 3625;
}
{
glyphname = "soSua-thai";
kernRight = soSala;
layers = (
{
anchors = (
{
name = bottomright;
pos = (674,0);
},
{
name = topright;
pos = (749,552);
}
);
layerId = m01;
shapes = (
{
ref = "loLing-thai";
},
{
closed = 1;
nodes = (
(374,478,l),
(749,478,l),
(749,560,l),
(374,560,l)
);
}
);
width = 759;
}
);
unicode = 3626;
}
{
glyphname = "hoHip-thai";
layers = (
{
anchors = (
{
name = bottomright;
pos = (676,0);
},
{
name = topright;
pos = (675,552);
}
);
layerId = m01;
shapes = (
{
closed = 1;
nodes = (
(74,0,l),
(183,0,l),
(183,98,ls),
(183,121,o),
(273,145,o),
(386,144,cs),
(504,143,o),
(584,116,o),
(584,98,cs),
(584,0,l),
(674,0,l),
(674,302,ls),
(674,336,o),
(671,355,o),
(637,371,cs),
(607,386,o),
(493,401,o),
(380,401,cs),
(303,401,o),
(236,394,o),
(183,385,c),
(183,552,l),
(74,552,l)
);
},
{
closed = 1;
nodes = (
(435,371,o),
(465,371,o),
(561,371,cs),
(651,371,o),
(679,372,o),
(679,402,cs),
(679,411,o),
(679,487,o),
(678,496,cs),
(674,555,o),
(651,562,o),
(562,562,cs),
(474,562,o),
(439,562,o),
(435,498,cs),
(434,488,o),
(434,415,o),
(434,402,cs)
);
},
{
closed = 1;
nodes = (
(489,435,o),
(518,446,o),
(557,446,cs),
(595,446,o),
(625,435,o),
(625,425,cs),
(625,413,o),
(595,402,o),
(557,402,cs),
(518,402,o),
(489,413,o),
(489,425,cs)
);
}
);
width = 753;
}
);
unicode = 3627;
}
{
glyphname = "loChula-thai";
kernLeft = kho;
layers = (
{
anchors = (
{
name = bottomright;
pos = (674,0);
},
{
name = topright;
pos = (553,552);
}
);
layerId = m01;
shapes = (
{
closed = 1;
nodes = (
(809,480,l),
(972,480,l),
(972,552,l),
(809,552,l)
);
},
{
ref = "phoPhan-thai";
},
{
closed = 1;
nodes = (
(663,521,o),
(694,521,o),
(793,521,cs),
(886,521,o),
(914,522,o),
(914,552,cs),
(914,561,o),
(914,637,o),
(913,646,cs),
(909,705,o),
(886,712,o),
(794,712,cs),
(703,712,o),
(667,712,o),
(663,648,cs),
(662,638,o),
(662,565,o),
(662,552,cs)
);
},
{
closed = 1;
nodes = (
(719,585,o),
(748,596,o),
(789,596,cs),
(828,596,o),
(858,585,o),
(858,575,cs),
(858,563,o),
(828,552,o),
(789,552,cs),
(748,552,o),
(719,563,o),
(719,575,cs)
);
}
);
width = 982;
}
);
unicode = 3628;
}
{
glyphname = "oAng-thai";
layers = (
{
anchors = (
{
name = bottomright;
pos = (669,0);
},
{
name = topright;
pos = (669,552);
}
);
guides = (
{
pos = (583,110);
}
);
hints = (
{
name = _segment.curve.top;
origin = (0,0);
scale = (0.99174,1);
type = Segment;
}
);
layerId = m01;
shapes = (
{
closed = 1;
nodes = (
(74,316,l),
(74,257,l),
(162,259,l),
(163,305,o),
(231,316,o),
(374,316,cs),
(560,316,o),
(580,283,o),
(580,240,cs),
(580,190,o),
(588,137,o),
(563,107,cs),
(537,76,o),
(475,65,o),
(375,65,cs),
(295,65,o),
(187,72,o),
(166,81,cs),
(149,88,o),
(146,108,o),
(151,119,cs),
(159,136,o),
(259,154,o),
(375,154,c),
(375,220,l),
(74,210,l),
(72,144,o),
(70,20,o),
(74,14,cs),
(79,6,o),
(192,-3,o),
(374,-3,cs),
(599,-3,o),
(650,0,o),
(659,9,cs),
(670,20,o),
(669,72,o),
(669,316,c)
);
}
);
width = 739;
}
);
unicode = 3629;
}
{
glyphname = "hoNokhuk-thai";
layers = (
{
anchors = (
{
name = bottomright;
pos = (550,0);
},
{
name = topright;
pos = (616,552);
}
);
layerId = m01;
shapes = (
{
closed = 1;
nodes = (
(426,392,o),
(379,405,o),
(379,420,cs),
(379,436,o),
(426,449,o),
(482,449,c),
(538,449,o),
(584,436,o),
(584,420,cs),
(584,405,o),
(538,392,o),
(482,392,cs)
);
},
{
ref = "oAng-thai";
},
{
closed = 1;
nodes = (
(357,320,l),
(733,320,l),
(733,392,l),
(357,392,l)
);
}
);
width = 743;
}
);
unicode = 3630;
}
{
glyphname = "paiyannoi-thai";
layers = (
{
hints = (
{
name = _segment.top_invert;
origin = (0,7);
type = Segment;
}
);
layerId = m01;
shapes = (
{
closed = 1;
nodes = (
(270,259,l),
(345,259,o),
(368,231,o),
(368,213,cs),
(368,0,l),
(458,0,l),
(458,536,l),
(74,536,l,{
GSSegment = {
name = _segment.top_invert;
};
}),
(74,256,l)
);
}
);
width = 532;
}
);
unicode = 3631;
}
{
glyphname = "saraA-thai";
layers = (
{
layerId = m01;
shapes = (
{
closed = 1;
nodes = (
(7,428,o),
(0,424,o),
(0,408,cs),
(0,273,ls),
(0,259,o),
(7,257,o),
(50,257,cs),
(262,257,l),
(262,324,l),
(160,324,l),
(160,409,ls),
(160,425,o),
(153,428,o),
(110,428,cs),
(50,428,ls)
);
},
{
closed = 1;
nodes = (
(7,193,o),
(0,189,o),
(0,173,cs),
(0,39,ls),
(0,25,o),
(7,23,o),
(50,23,cs),
(262,23,l),
(262,90,l),
(160,90,l),
(160,174,ls),
(160,190,o),
(153,193,o),
(110,193,cs),
(50,193,ls)
);
}
);
width = 299;
}
);
unicode = 3632;
}
{
category = Mark;
glyphname = "maiHanaKat-thai";
kernRight = uppermarks;
layers = (
{
anchors = (
{
name = _topright;
pos = (-74,577);
},
{
name = topright;
pos = (-74,743);
}
);
hints = (
{
horizontal = 1;
origin = (1,4);
target = (0,3);
type = Stem;
},
{
origin = (1,1);
target = (1,8);
type = Stem;
}
);
layerId = m01;
shapes = (
{
closed = 1;
nodes = (
(-447,627,l),
(-74,627,l),
(-74,701,l),
(-447,701,l)
);
},
{
closed = 1;
nodes = (
(-594,794,l),
(-594,652,l),
(-594,631,o),
(-587,626,o),
(-544,628,c),
(-385,628,l),
(-342,631,o),
(-335,638,o),
(-335,663,c),
(-335,796,l)
);
}
);
width = 0;
}
);
script = thai;
subCategory = Nonspacing;
unicode = 3633;
}
{
glyphname = "saraAa-thai";
layers = (
{
hints = (
{
name = _segment.curve.top;
origin = (0,11);
type = Segment;
}
);
layerId = m01;
shapes = (
{
closed = 1;
nodes = (
(112,287,l),
(112,304,o),
(176,316,o),
(261,316,cs),
(341,316,o),
(406,303,o),
(406,286,cs),
(406,285,l),
(406,0,l),
(495,0,l),
(498,316,l),
(34,316,l),
(34,290,o),
(34,320,o),
(34,287,c)
);
}
);
width = 535;
}
);
unicode = 3634;
}
{
glyphname = "saraAm-thai";
layers = (
{
layerId = m01;
shapes = (
{
closed = 1;
nodes = (
(-36,594,o),
(-14,594,o),
(56,594,cs),
(122,594,o),
(143,595,o),
(143,622,cs),
(143,630,o),
(143,699,o),
(142,708,cs),
(139,761,o),
(122,767,o),
(57,767,cs),
(-8,767,o),
(-33,767,o),
(-36,709,cs),
(-37,700,o),
(-37,634,o),
(-37,622,cs)
);
},
{
closed = 1;
nodes = (
(3,667,o),
(25,678,o),
(53,678,cs),
(81,678,o),
(103,667,o),
(103,657,cs),
(103,645,o),
(81,634,o),
(53,634,cs),
(25,634,o),
(3,645,o),
(3,657,cs)
);
},
{
pos = (17,0);
ref = "saraAa-thai";
}
);
width = 518;
}
);
unicode = 3635;
}
{
category = Mark;
glyphname = "saraI-thai";
kernRight = uppermarks;
layers = (
{
anchors = (
{
name = _topright;
pos = (-74,557);
},
{
name = topright;
pos = (-74,699);
}
);
hints = (
{
horizontal = 1;
place = (592, 21);
target = up;
type = BottomGhost;
},
{
horizontal = 1;
place = (700, 76);
place = (700, 76);
type = Stem;
},
{
place = (-631, 557);
place = (-631, 557);
type = Stem;
}
);
layerId = m01;
shapes = (
{
closed = 1;
nodes = (
(-631,626,l),
(-74,626,l),
(-74,699,l),
(-631,699,l)
);
}
);
width = 0;
}
);
script = thai;
subCategory = Nonspacing;
unicode = 3636;
}
{
category = Mark;
glyphname = "saraIi-thai";
kernRight = uppermarks;
layers = (
{
anchors = (
{
name = _topright;
pos = (-74,576);
},
{
name = topright;
pos = (-74,796);
}
);
hints = (
{
horizontal = 1;
origin = (1,1);
target = (1,0);
type = Stem;
},
{
origin = (1,1);
target = (1,2);
type = Stem;
}
);
layerId = m01;
shapes = (
{
ref = "saraI-thai";
},
{
closed = 1;
nodes = (
(-274,796,l),
(-274,685,l),
(-74,685,l),
(-74,796,l)
);
}
);
width = 0;
}
);
script = thai;
subCategory = Nonspacing;
unicode = 3637;
}
{
category = Mark;
glyphname = "saraUe-thai";
kernRight = uppermarks;
layers = (
{
anchors = (
{
name = _topright;
pos = (-74,576);
},
{
name = topright;
pos = (-74,803);
}
);
hints = (
{
horizontal = 1;
place = (688, 38);
place = (688, 38);
type = Stem;
},
{
horizontal = 1;
place = (814, 43);
place = (814, 43);
type = Stem;
},
{
place = (-200, 44);
place = (-200, 44);
type = Stem;
},
{
place = (-111, 37);
place = (-111, 37);
type = Stem;
}
);
layerId = m01;
shapes = (
{
ref = "saraI-thai";
},
{
closed = 1;
nodes = (
(-74,685,l),
(-74,801,ls),
(-74,811,o),
(-132,815,o),
(-160,815,cs),
(-190,815,o),
(-256,811,o),
(-256,801,cs),
(-256,685,l)
);
},
{
closed = 1;
nodes = (
(-200,729,o),
(-177,736,o),
(-152,736,cs),
(-126,736,o),
(-104,729,o),
(-104,719,cs),
(-104,709,o),
(-126,700,o),
(-152,700,cs),
(-177,700,o),
(-200,709,o),
(-200,719,cs)
);
}
);
width = 0;
}
);
script = thai;
subCategory = Nonspacing;
unicode = 3638;
}
{
category = Mark;
glyphname = "saraUee-thai";
kernRight = uppermarks;
layers = (
{
anchors = (
{
name = _topright;
pos = (-74,576);
},
{
name = topright;
pos = (-74,815);
}
);
hints = (
{
horizontal = 1;
place = (632, 195);
place = (632, 195);
type = Stem;
},
{
place = (-301, 90);
place = (-301, 90);
type = Stem;
},
{
place = (-173, 90);
place = (-173, 90);
type = Stem;
}
);
layerId = m01;
shapes = (
{
ref = "saraI-thai";
},
{
closed = 1;
nodes = (
(-74,686,l),
(-74,815,l),
(-132,815,l),
(-132,699,l),
(-176,699,l),
(-176,815,l),
(-296,815,l),
(-296,686,l)
);
}
);
width = 0;
}
);
script = thai;
subCategory = Nonspacing;
unicode = 3639;
}
{
category = Mark;
glyphname = "saraU-thai";
layers = (
{
anchors = (
{
name = _bottomright;
pos = (-74,8);
}
);
layerId = m01;
shapes = (
{
closed = 1;
nodes = (
(-74,-51,ls),
(-74,-44,o),
(-103,-39,o),
(-201,-39,cs),
(-298,-39,o),
(-317,-44,o),
(-317,-51,c),
(-317,-137,l),
(-160,-137,o),
(-160,-153,o),
(-160,-209,c),
(-74,-209,l)
);
}
);
width = 0;
}
);
script = thai;
subCategory = Nonspacing;
unicode = 3640;
}
{
category = Mark;
glyphname = "saraUu-thai";
layers = (
{
anchors = (
{
name = _bottomright;
pos = (-74,8);
}
);
layerId = m01;
shapes = (
{
closed = 1;
nodes = (
(-74,-209,l),
(-74,-46,l),
(-160,-46,l),
(-160,-169,l),
(-206,-169,o),
(-212,-140,o),
(-221,-51,c),
(-221,-44,o),
(-249,-39,o),
(-336,-39,cs),
(-433,-39,o),
(-440,-44,o),
(-440,-51,c),
(-440,-137,l),
(-287,-137,o),
(-287,-153,o),
(-287,-209,c)
);
}
);
width = 0;
}
);
script = thai;
subCategory = Nonspacing;
unicode = 3641;
}
{
glyphname = baht;
layers = (
{
layerId = m01;
shapes = (
{
closed = 1;
nodes = (
(74,3,l),
(120,-3,o),
(219,-11,o),
(338,-11,c),
(497,-11,o),
(614,-4,o),
(683,4,c),
(735,10,o),
(747,11,o),
(747,81,c),
(747,107,o),
(746,130,o),
(743,136,c),
(732,163,o),
(673,156,o),
(638,169,c),
(682,186,o),
(732,182,o),
(737,208,c),
(742,230,o),
(746,266,o),
(746,287,c),
(746,312,o),
(744,325,o),
(743,350,c),
(739,456,o),
(749,520,o),
(722,538,c),
(707,549,o),
(571,564,o),
(322,564,c),
(167,564,o),
(80,556,o),
(74,555,c)
);
},
{
closed = 1;
nodes = (
(160,284,l),
(209,286,o),
(261,289,o),
(317,289,c),
(536,289,o),
(653,268,o),
(653,249,c),
(653,227,o),
(533,205,o),
(333,204,c),
(288,204,o),
(262,201,o),
(217,201,c),
(199,201,o),
(179,202,o),
(160,204,c)
);
},
{
closed = 1;
nodes = (
(160,132,l),
(194,135,o),
(233,134,o),
(271,134,c),
(471,134,o),
(598,125,o),
(649,104,c),
(653,102,o),
(660,99,o),
(660,94,c),
(660,76,o),
(548,59,o),
(361,59,c),
(302,59,o),
(234,61,o),
(160,64,c)
);
},
{
closed = 1;
nodes = (
(244,-57,l),
(290,-57,l),
(290,632,l),
(244,632,l)
);
}
);
width = 821;
}
);
unicode = 3647;
}
{
glyphname = "saraE-thai";
kernRight = sara;
layers = (
{
layerId = m01;
shapes = (
{
closed = 1;
nodes = (
(74,0,l),
(170,0,l),
(168,552,l),
(76,552,l)
);
},
{
closed = 1;
nodes = (
(245,110,ls),
(245,163,o),
(242,170,o),
(226,170,cs),
(169,170,l),
(169,262,l),
(102,262,l),
(102,50,ls),
(102,7,o),
(104,0,o),
(118,0,cs),
(225,0,ls),
(241,0,o),
(245,7,o),
(245,50,cs)
);
}
);
width = 245;
}
);
unicode = 3648;
}
{
glyphname = "saraAe-thai";
kernRight = sara;
layers = (
{
layerId = m01;
shapes = (
{
closed = 1;
nodes = (
(74,0,l),
(170,0,l),
(168,552,l),
(76,552,l)
);
},
{
closed = 1;
nodes = (
(245,110,ls),
(245,163,o),
(242,170,o),
(226,170,cs),
(169,170,l),
(169,262,l),
(102,262,l),
(102,50,ls),
(102,7,o),
(104,0,o),
(118,0,cs),
(225,0,ls),
(241,0,o),
(245,7,o),
(245,50,cs)
);
},
{
closed = 1;
nodes = (
(297,0,l),
(393,0,l),
(391,552,l),
(299,552,l)
);
},
{
closed = 1;
nodes = (
(468,110,ls),
(468,163,o),
(465,170,o),
(449,170,cs),
(392,170,l),
(392,262,l),
(325,262,l),
(325,50,ls),
(325,7,o),
(327,0,o),
(341,0,cs),
(448,0,ls),
(464,0,o),
(468,7,o),
(468,50,cs)
);
}
);
width = 468;
}
);
unicode = 3649;
}
{
glyphname = "saraO-thai";
kernLeft = saraO;
layers = (
{
layerId = m01;
shapes = (
{
closed = 1;
nodes = (
(-74,719,l),
(22,719,o),
(92,708,o),
(92,570,c),
(89,0,l),
(290,0,l),
(290,81,l),
(202,81,l),
(184,81,o),
(173,86,o),
(173,290,c),
(173,639,l),
(329,639,l),
(329,765,l),
(329,799,o),
(327,802,o),
(308,805,c),
(292,807,o),
(225,809,o),
(163,809,c),
(100,809,o),
(-37,807,o),
(-53,805,c),
(-72,802,o),
(-74,799,o),
(-74,765,c)
);
}
);
width = 329;
}
);
unicode = 3650;
}
{
glyphname = "saraAiMaimuan-thai";
kernLeft = saraO;
kernRight = sara;
layers = (
{
layerId = m01;
shapes = (
{
closed = 1;
nodes = (
(74,629,l),
(74,755,l),
(74,789,o),
(77,792,o),
(86,795,c),
(94,797,o),
(130,799,o),
(163,799,c),
(207,799,o),
(274,797,o),
(290,795,c),
(309,792,o),
(311,789,o),
(311,755,c),
(311,709,l),
(311,455,ls),
(311,192,o),
(325,170,o),
(366,170,cs),
(407,170,l),
(407,0,l),
(227,0,l),
(230,629,l)
);
}
);
width = 407;
}
);
unicode = 3651;
}
{
glyphname = "saraAiMaimalai-thai";
kernRight = sara;
layers = (
{
layerId = m01;
shapes = (
{
closed = 1;
nodes = (
(-74,800,o),
(-69,820,o),
(-56,816,c),
(-46,813,o),
(4,775,o),
(87,775,c),
(176,775,o),
(229,813,o),
(240,816,c),
(253,820,o),
(259,800,o),
(259,775,c),
(259,290,l),
(259,86,o),
(270,81,o),
(288,81,c),
(376,81,l),
(376,0,l),
(175,0,l),
(178,605,l),
(-74,605,l),
(-74,775,l)
);
}
);
width = 376;
}
);
unicode = 3652;
}
{
glyphname = "lakkhangyao-thai";
layers = (
{
hints = (
{
name = _segment.curve.top;
origin = (0,4);
type = Segment;
},
{
name = _segment.curve.top;
origin = (0,5);
type = Segment;
}
);
layerId = m01;
shapes = (
{
closed = 1;
nodes = (
(205,290,l),
(203,-200,l),
(295,-200,l),
(297,290,l),
(0,290,l,{
GSSegment = {
name = _segment.curve.top;
};
}),
(0,290,l,{
GSSegment = {
name = _segment.curve.top;
};
})
);
}
);
width = 600;
}
);
unicode = 3653;
}
{
glyphname = "maiyamok-thai";
layers = (
{
layerId = m01;
shapes = (
{
closed = 1;
nodes = (
(586,-103,l),
(674,-103,l),
(674,739,ls),
(674,745,o),
(642,751,o),
(540,751,cs),
(438,751,o),
(419,745,o),
(419,739,cs),
(411,676,o),
(394,631,o),
(375,631,cs),
(355,631,o),
(330,676,o),
(330,739,cs),
(330,745,o),
(297,751,o),
(195,751,cs),
(93,751,o),
(74,745,o),
(74,739,cs),
(74,395,l),
(228,395,l),
(228,450,l),
(170,450,o),
(163,453,o),
(163,519,c),
(163,552,ls),
(163,555,o),
(187,559,o),
(249,562,cs),
(311,564,o),
(335,522,o),
(335,441,cs),
(335,395,l),
(425,395,l),
(425,441,ls),
(425,522,o),
(447,564,o),
(505,562,cs),
(562,559,o),
(586,555,o),
(586,552,cs)
);
}
);
width = 748;
}
);
unicode = 3654;
}
{
category = Mark;
glyphname = "maitaikhu-thai";
kernRight = uppermarks;
layers = (
{
anchors = (
{
name = _topright;
pos = (-74,630);
}
);
layerId = m01;
shapes = (
{
closed = 1;
nodes = (
(-313,700,l),
(-153,680,l),
(-152,697,l),
(-152,680,l),
(-72,680,l),
(-72,759,l),
(-152,759,l),
(-152,732,l),
(-313,753,l),
(-356,730,ls),
(-381,716,o),
(-404,710,o),
(-404,783,c),
(-73,783,l),
(-73,871,l),
(-458,871,ls),
(-462,871,o),
(-466,854,o),
(-466,785,cs),
(-466,710,o),
(-462,681,o),
(-458,681,cs),
(-348,681,l),
(-344,680,l)
);
}
);
width = 0;
}
);
script = thai;
subCategory = Nonspacing;
unicode = 3655;
}
{
category = Mark;
glyphname = "maiEk-thai";
kernRight = uppermarks;
layers = (
{
anchors = (
{
name = _topright;
pos = (-76,596);
}
);
hints = (
{
horizontal = 1;
origin = (0,0);
target = (0,3);
type = Stem;
},
{
origin = (0,0);
target = (0,1);
type = Stem;
}
);
layerId = m01;
shapes = (
{
closed = 1;
nodes = (
(-231,646,l),
(-76,646,l),
(-76,816,l),
(-231,816,l)
);
}
);
width = 0;
}
);
script = thai;
subCategory = Nonspacing;
unicode = 3656;
}
{
category = Mark;
glyphname = "maiTho-thai";
kernRight = uppermarks;
layers = (
{
anchors = (
{
name = _topright;
pos = (-64,552);
}
);
layerId = m01;
shapes = (
{
closed = 1;
nodes = (
(-161,600,o),
(-391,637,o),
(-391,791,c),
(-298,791,l),
(-291,728,o),
(-279,688,o),
(-266,688,cs),
(-253,688,o),
(-241,728,o),
(-233,791,c),
(-64,791,l),
(-64,600,l)
);
}
);
width = 10;
}
);
script = thai;
subCategory = Nonspacing;
unicode = 3657;
}
{
category = Mark;
glyphname = "maiTri-thai";
kernRight = uppermarks;
layers = (
{
anchors = (
{
name = _topright;
pos = (-64,550);
}
);
layerId = m01;
shapes = (
{
closed = 1;
nodes = (
(-341,600,l),
(-341,605,ls),
(-341,632,o),
(-326,654,o),
(-306,654,cs),
(-287,654,o),
(-272,632,o),
(-272,605,cs),
(-272,600,l),
(-185,600,l),
(-185,605,ls),
(-185,632,o),
(-169,654,o),
(-150,654,cs),
(-131,654,o),
(-115,632,o),
(-115,605,cs),
(-115,600,l),
(-64,600,l),
(-86,791,l),
(-187,791,l),
(-196,766,o),
(-209,656,o),
(-227,656,cs),
(-245,656,o),
(-263,766,o),
(-270,791,c),
(-369,791,l),
(-391,600,l)
);
}
);
width = 10;
}
);
script = thai;
subCategory = Nonspacing;
unicode = 3658;
}
{
category = Mark;
glyphname = "maiChattawa-thai";
kernRight = uppermarks;
layers = (
{
anchors = (
{
name = _topright;
pos = (-55,542);
}
);
hints = (
{
horizontal = 1;
origin = (1,0);
target = (0,3);
type = Stem;
},
{
horizontal = 1;
origin = (1,0);
target = (1,3);
type = Stem;
},
{
origin = (0,0);
target = (0,1);
type = Stem;
}
);
layerId = m01;
shapes = (
{
closed = 1;
nodes = (
(-187,592,l),
(-113,592,l),
(-113,783,l),
(-187,783,l)
);
},
{
closed = 1;
nodes = (
(-382,627,l),
(-55,627,l),
(-55,748,l),
(-382,748,l)
);
}
);
width = 0;
}
);
script = thai;
subCategory = Nonspacing;
unicode = 3659;
}
{
category = Mark;
glyphname = "thanthakhat-thai";
kernRight = uppermarks;
layers = (
{
anchors = (
{
name = _topright;
pos = (-74,580);
}
);
layerId = m01;
shapes = (
{
closed = 1;
nodes = (
(-390,626,o),
(-360,626,o),
(-264,626,cs),
(-174,626,o),
(-146,627,o),
(-146,657,cs),
(-146,666,o),
(-146,742,o),
(-147,751,cs),
(-151,810,o),
(-174,817,o),
(-263,817,cs),
(-351,817,o),
(-386,817,o),
(-390,753,cs),
(-391,743,o),
(-391,670,o),
(-391,657,cs)
);
},
{
closed = 1;
nodes = (
(-336,693,o),
(-307,701,o),
(-268,701,cs),
(-230,701,o),
(-200,693,o),
(-200,686,cs),
(-200,678,o),
(-230,670,o),
(-268,670,cs),
(-307,670,o),
(-336,678,o),
(-336,686,cs)
);
},
{
closed = 1;
nodes = (
(-263,728,l),
(-74,728,l),
(-74,817,l),
(-263,817,l)
);
}
);
width = 0;
}
);
script = thai;
subCategory = Nonspacing;
unicode = 3660;
}
{
glyphname = "zero-thai";
layers = (
{
guides = (
{
pos = (15,514);
},
{
angle = 90;
pos = (397,521);
}
);
layerId = m01;
shapes = (
{
closed = 1;
nodes = (
(206,561,o),
(110,542,o),
(96,514,cs),
(85,493,o),
(74,396,o),
(74,200,cs),
(74,107,o),
(85,49,o),
(96,36,cs),
(110,19,o),
(232,-9,o),
(404,-9,cs),
(576,-9,o),
(689,19,o),
(703,36,cs),
(714,49,o),
(725,107,o),
(725,201,cs),
(725,396,o),
(714,493,o),
(703,514,cs),
(689,542,o),
(588,561,o),
(397,561,cs)
);
},
{
closed = 1;
nodes = (
(574,217,o),
(644,183,o),
(644,159,c),
(644,128,o),
(531,93,o),
(397,93,cs),
(263,93,o),
(148,128,o),
(148,159,c),
(148,183,o),
(220,217,o),
(397,217,cs)
);
}
);
width = 799;
}
);
unicode = 3664;
}
{
glyphname = "one-thai";
layers = (
{
guides = (
{
angle = 90;
pos = (445,120);
},
{
angle = 90;
pos = (337,86);
}
);
layerId = m01;
shapes = (
{
closed = 1;
nodes = (
(580,128,l),
(534,114,o),
(471,103,o),
(397,103,cs),
(263,103,o),
(148,138,o),
(148,169,c),
(148,198,o),
(220,252,o),
(397,252,cs),
(574,252,o),
(644,217,o),
(644,176,cs),
(644,66,o),
(622,25,o),
(605,0,c),
(693,0,l),
(704,13,o),
(725,107,o),
(725,201,cs),
(725,396,o),
(714,493,o),
(703,514,cs),
(689,542,o),
(588,561,o),
(397,561,cs),
(206,561,o),
(110,542,o),
(96,514,cs),
(85,494,o),
(74,403,o),
(74,217,cs),
(74,130,o),
(85,75,o),
(96,63,cs),
(110,47,o),
(232,20,o),
(404,20,cs),
(469,20,o),
(506,23,o),
(553,29,c)
);
}
);
width = 799;
}
);
unicode = 3665;
}
{
glyphname = "two-thai";
layers = (
{
layerId = m01;
shapes = (
{
closed = 1;
nodes = (
(74,293,ls),
(74,76,o),
(80,0,o),
(255,0,cs),
(674,0,l),
(674,82,l),
(258,82,ls),
(163,82,o),
(153,117,o),
(153,322,cs),
(153,568,l),
(74,568,l)
);
},
{
closed = 1;
nodes = (
(585,0,l),
(674,0,l),
(674,522,ls),
(674,529,o),
(651,534,o),
(576,534,cs),
(487,534,o),
(472,529,o),
(472,522,cs),
(465,463,o),
(451,420,o),
(437,420,cs),
(421,420,o),
(403,463,o),
(403,522,cs),
(403,529,o),
(376,534,o),
(306,534,cs),
(226,534,o),
(212,529,o),
(212,522,cs),
(212,400,o),
(212,393,o),
(212,271,cs),
(212,185,o),
(239,154,o),
(270,154,c),
(328,154,l),
(328,205,l),
(287,205,o),
(281,208,o),
(281,272,cs),
(281,302,ls),
(281,304,o),
(299,309,o),
(343,311,cs),
(388,313,o),
(403,274,o),
(403,197,cs),
(403,154,l),
(468,154,l),
(468,197,ls),
(468,274,o),
(485,313,o),
(525,311,cs),
(567,309,o),
(584,304,o),
(584,302,cs)
);
}
);
width = 748;
}
);
unicode = 3666;
}
{
glyphname = "three-thai";
layers = (
{
layerId = m01;
shapes = (
{
closed = 1;
nodes = (
(586,0,l),
(674,0,l),
(674,552,ls),
(674,562,o),
(642,572,o),
(540,572,cs),
(438,572,o),
(419,562,o),
(419,552,cs),
(411,451,o),
(394,379,o),
(375,379,cs),
(355,379,o),
(330,451,o),
(330,552,cs),
(330,562,o),
(297,572,o),
(195,572,cs),
(93,572,o),
(74,562,o),
(74,552,cs),
(74,0,l),
(228,0,l),
(228,88,l),
(170,88,o),
(163,93,o),
(163,200,c),
(163,252,ls),
(163,257,o),
(187,264,o),
(249,268,cs),
(311,272,o),
(335,205,o),
(335,74,cs),
(335,0,l),
(425,0,l),
(425,74,ls),
(425,205,o),
(447,272,o),
(505,268,cs),
(562,264,o),
(586,257,o),
(586,252,cs)
);
}
);
width = 748;
}
);
unicode = 3667;
}
{
glyphname = "four-thai";
layers = (
{
guides = (
{
angle = 90;
pos = (574,196);
},
{
pos = (678,58);
}
);
layerId = m01;
shapes = (
{
closed = 1;
nodes = (
(72,21,o),
(80,14,o),
(86,8,cs),
(94,-2,o),
(149,-2,o),
(181,-2,cs),
(676,-2,l),
(676,64,l),
(407,64,o),
(188,109,o),
(188,168,cs),
(188,226,o),
(407,272,o),
(676,272,c),
(676,567,l),
(586,567,l),
(586,511,o),
(359,494,o),
(76,494,cs),
(72,494,o),
(72,289,o),
(72,231,cs)
);
},
{
closed = 1;
nodes = (
(258,56,o),
(445,-2,o),
(676,-2,c),
(676,70,l),
(512,70,o),
(354,93,o),
(354,118,cs),
(354,144,o),
(507,164,o),
(569,164,c),
(569,226,l),
(389,212,o),
(258,168,o),
(258,111,cs)
);
}
);
width = 752;
}
);
unicode = 3668;
}
{
glyphname = "five-thai";
layers = (
{
guides = (
{
angle = 90;
pos = (380,465);
}
);
layerId = m01;
shapes = (
{
closed = 1;
nodes = (
(74,21,o),
(82,14,o),
(88,8,cs),
(96,-2,o),
(151,-2,o),
(183,-2,cs),
(678,-2,l),
(678,70,l),
(514,70,o),
(356,93,o),
(356,118,cs),
(356,144,o),
(509,164,o),
(571,164,c),
(571,226,l),
(394,212,o),
(264,169,o),
(260,114,c),
(216,129,o),
(190,148,o),
(190,168,cs),
(190,226,o),
(409,272,o),
(678,272,c),
(678,567,l),
(588,567,l),
(588,536,o),
(519,517,o),
(410,506,c),
(406,565,o),
(383,572,o),
(294,572,cs),
(206,572,o),
(171,572,o),
(167,508,cs),
(167,506,o),
(167,501,o),
(166,495,c),
(138,494,o),
(108,494,o),
(78,494,cs),
(74,494,o),
(74,289,o),
(74,231,cs)
);
},
{
closed = 1;
nodes = (
(209,478,o),
(243,493,o),
(289,493,cs),
(334,493,o),
(369,478,o),
(369,465,cs),
(369,450,o),
(334,435,o),
(289,435,cs),
(243,435,o),
(209,450,o),
(209,465,cs)
);
}
);
width = 752;
}
);
unicode = 3669;
}
{
glyphname = "six-thai";
layers = (
{
hints = (
{
name = _segment.curve.bottom;
origin = (0,0);
type = Segment;
}
);
layerId = m01;
shapes = (
{
closed = 1;
nodes = (
(674,97,l),
(674,411,l),
(163,411,l),
(163,572,l),
(74,572,l),
(74,356,l),
(75,356,ls),
(355,356,o),
(584,334,o),
(584,306,cs),
(584,279,o),
(355,256,o),
(75,256,cs),
(74,256,l),
(74,97,l)
);
}
);
width = 748;
}
);
unicode = 3670;
}
{
glyphname = "seven-thai";
layers = (
{
layerId = m01;
shapes = (
{
ref = "three-thai";
},
{
closed = 1;
nodes = (
(838,0,l),
(838,572,l),
(765,572,l),
(765,306,o),
(732,90,o),
(720,90,cs),
(707,90,o),
(674,286,o),
(674,552,c),
(674,0,l)
);
}
);
width = 912;
}
);
unicode = 3671;
}
{
glyphname = "eight-thai";
layers = (
{
guides = (
{
angle = 90;
pos = (551,167);
}
);
layerId = m01;
shapes = (
{
closed = 1;
nodes = (
(74,0,l),
(163,0,l),
(250,0,l),
(255,-1,l),
(303,37,l),
(550,-1,l),
(553,71,l),
(303,110,l),
(237,67,ls),
(198,41,o),
(158,100,o),
(158,171,cs),
(158,189,o),
(158,215,o),
(163,226,cs),
(169,240,o),
(242,268,o),
(351,268,cs),
(473,269,o),
(551,249,o),
(551,226,c),
(673,226,l),
(676,567,l),
(586,567,l),
(586,511,o),
(357,494,o),
(74,494,c)
);
},
{
closed = 1;
nodes = (
(551,-1,l),
(674,-1,l),
(674,165,l),
(551,165,l)
);
}
);
width = 748;
}
);
unicode = 3672;
}
{
glyphname = "nine-thai";
layers = (
{
guides = (
{
angle = 90;
pos = (397,552);
}
);
layerId = m01;
shapes = (
{
closed = 1;
nodes = (
(543,256,ls),
(673,256,o),
(673,290,o),
(673,552,c),
(524,552,l),
(516,483,o),
(491,432,o),
(461,432,c),
(461,256,l)
);
},
{
closed = 1;
nodes = (
(186,111,o),
(187,147,o),
(187,161,cs),
(188,205,o),
(194,218,o),
(202,218,c),
(230,218,ls),
(486,218,o),
(542,66,o),
(583,0,c),
(673,0,l),
(374,494,l),
(179,494,o),
(102,491,o),
(89,452,c),
(89,452,o),
(74,349,o),
(74,178,c),
(74,97,o),
(89,45,o),
(100,34,c),
(114,17,o),
(168,8,o),
(248,-1,cs),
(304,-7,o),
(339,-11,o),
(397,-11,c),
(405,43,l),
(282,43,o),
(225,64,o),
(202,92,cs)
);
}
);
width = 747;
}
);
unicode = 3673;
}
{
export = 0;
glyphname = "_cho-yo-no";
layers = (
{
hints = (
{
name = _segment.curve.top;
origin = (0,12);
type = Segment;
}
);
layerId = m01;
shapes = (
{
closed = 1;
nodes = (
(189,195,o),
(163,214,o),
(163,227,cs),
(163,257,o),
(263,270,o),
(370,270,cs),
(477,270,o),
(564,257,o),
(564,227,cs),
(564,144,l),
(650,17,l),
(650,316,l),
(74,316,l),
(74,260,ls),
(74,242,o),
(78,209,o),
(83,190,cs),
(89,168,o),
(132,171,o),
(171,155,c),
(138,144,o),
(87,151,o),
(77,126,cs),
(75,121,o),
(74,76,o),
(74,76,c),
(74,0,l),
(107,0,l),
(107,0,o),
(108,0,o),
(108,0,c),
(163,0,ls),
(177,0,o),
(192,0,o),
(207,0,cs),
(221,0,l),
(221,65,l),
(163,65,l),
(163,89,ls),
(163,101,o),
(170,119,o),
(363,119,c),
(363,195,l)
);
}
);
width = 724;
}
);
}
{
export = 0;
glyphname = _segment.curve.bottom;
layers = (
{
anchors = (
{
name = end;
pos = (600,91);
},
{
name = start;
pos = (0,91);
}
);
layerId = m01;
shapes = (
{
closed = 0;
nodes = (
(0,91,l),
(0,57,o),
(3,38,o),
(37,22,c),
(67,7,o),
(187,-8,o),
(300,-8,cs),
(413,-8,o),
(533,7,o),
(563,22,cs),
(597,38,o),
(600,57,o),
(600,91,c)
);
}
);
width = 600;
}
);
}
{
export = 0;
glyphname = _segment.curve.inner;
layers = (
{
anchors = (
{
name = end;
pos = (90,-24);
},
{
name = start;
pos = (511,-25);
}
);
layerId = m01;
shapes = (
{
closed = 0;
nodes = (
(511,-25,l),
(510,51,o),
(446,65,o),
(300,65,cs),
(154,65,o),
(90,52,o),
(90,-24,c)
);
}
);
width = 600;
}
);
}
{
export = 0;
glyphname = _segment.curve.inner.shallow;
layers = (
{
anchors = (
{
name = end;
pos = (583,0);
},
{
name = start;
pos = (162,0);
}
);
layerId = m01;
shapes = (
{
closed = 0;
nodes = (
(162,0,ls),
(162,14,o),
(232,29,o),
(369,34,c),
(485,34,o),
(583,19,o),
(583,0,cs)
);
}
);
width = 600;
}
);
}
{
export = 0;
glyphname = _segment.curve.top;
layers = (
{
anchors = (
{
name = end;
pos = (31,241);
},
{
name = start;
pos = (631,241);
}
);
layerId = m01;
shapes = (
{
closed = 0;
nodes = (
(631,241,l),
(631,145,o),
(629,32,o),
(608,18,cs),
(595,9,o),
(475,-5,o),
(336,-5,cs),
(197,-5,o),
(67,9,o),
(54,18,cs),
(33,31,o),
(31,145,o),
(31,241,c)
);
}
);
width = 600;
}
);
}
{
export = 0;
glyphname = _segment.top_invert;
layers = (
{
anchors = (
{
name = end;
pos = (649,35);
},
{
name = start;
pos = (-1,35);
}
);
layerId = m01;
shapes = (
{
closed = 0;
nodes = (
(-1,35,l),
(-1,9,o),
(9,3,o),
(35,0,c),
(54,-3,o),
(151,35,o),
(314,35,cs),
(487,35,o),
(590,-3,o),
(611,0,c),
(638,3,o),
(649,9,o),
(649,35,c)
);
}
);
width = 200;
}
);
}
{
glyphname = "yoYing-thai.less";
layers = (
{
anchors = (
{
name = bottomright;
pos = (847,0);
},
{
name = topright;
pos = (962,552);
}
);
layerId = m01;
shapes = (
{
closed = 1;
nodes = (
(564,154,l),
(564,0,l),
(820,0,l),
(908,0,o),
(950,7,o),
(976,22,cs),
(1005,38,o),
(1008,57,o),
(1008,91,cs),
(1008,552,l),
(918,552,l),
(918,215,ls),
(918,139,o),
(892,125,o),
(783,125,cs),
(677,125,o),
(653,146,o),
(653,214,cs),
(652,245,o),
(651,271,o),
(650,316,c)
);
},
{
ref = "_cho-yo-no";
}
);
width = 1082;
}
);
}
